<svg width="40" height="40" viewBox="0 0 40 40" fill="none" xmlns="http://www.w3.org/2000/svg">
<g clip-path="url(#clip0)">
<path d="M34.4221 22.2343C33.0237 22.2422 31.8127 22.5781 30.7971 23.0782C30.4221 22.336 30.0471 21.6875 29.9847 21.2032C29.9144 20.6407 29.8284 20.2968 29.9144 19.625C30.0002 18.9531 30.3909 18 30.3909 17.9218C30.383 17.8515 30.3049 17.5078 29.5002 17.5C28.6956 17.4922 28.0002 17.6562 27.9221 17.8672C27.844 18.0781 27.6877 18.5625 27.5862 19.0625C27.4456 19.7968 25.9768 22.3984 25.1409 23.7656C24.8674 23.2343 24.6331 22.7656 24.5861 22.3905C24.5159 21.8281 24.4299 21.4843 24.5159 20.8125C24.6018 20.1405 24.9924 19.1875 24.9924 19.1093C24.9846 19.039 24.9065 18.6953 24.1019 18.6875C23.2971 18.6797 22.6019 18.8437 22.5238 19.0547C22.4456 19.2656 22.3597 19.7656 22.1878 20.25C22.0237 20.7343 20.0706 25.0781 19.5627 26.2109C19.3049 26.789 19.0785 27.2499 18.9143 27.5624C18.7502 27.8749 18.9065 27.5859 18.8909 27.6171C18.7502 27.8828 18.6721 28.0312 18.6721 28.0312V28.0391C18.5627 28.2344 18.4456 28.4218 18.3908 28.4218C18.3517 28.4218 18.2736 27.8984 18.4064 27.1797C18.6955 25.6718 19.3986 23.3203 19.3909 23.2344C19.3909 23.1953 19.5236 22.7812 18.9377 22.5703C18.3674 22.3594 18.1643 22.711 18.1174 22.711C18.0705 22.711 18.0314 22.836 18.0314 22.836C18.0314 22.836 18.6642 20.1876 16.8205 20.1876C15.6642 20.1876 14.0705 21.4454 13.2814 22.5939C12.7814 22.8673 11.7189 23.4453 10.5939 24.0626C10.1642 24.297 9.71892 24.547 9.29704 24.7735L9.21118 24.6796C6.97681 22.2968 2.844 20.6093 3.01587 17.4062C3.07837 16.2422 3.48462 13.1719 10.9535 9.45311C17.0706 6.40625 21.9691 7.24218 22.8206 9.10155C24.0315 11.7578 20.2034 16.6953 13.8441 17.4062C11.4222 17.6797 10.1487 16.7422 9.82845 16.3906C9.49251 16.0234 9.44564 16.0078 9.32064 16.0781C9.11751 16.1875 9.24251 16.5156 9.32064 16.7109C9.50814 17.2031 10.2894 18.0781 11.6175 18.5156C12.7815 18.8984 15.6253 19.1093 19.0628 17.7812C22.9144 16.289 25.9222 12.1484 25.0394 8.68749C24.141 5.16406 18.2972 4.00782 12.7738 5.96875C9.48462 7.14062 5.92212 8.96874 3.35962 11.3672C0.312747 14.2109 -0.171628 16.6953 0.0314972 17.7265C0.742513 21.4062 5.81275 23.8046 7.844 25.5781C7.74243 25.6327 7.64868 25.6874 7.56275 25.7343C6.54712 26.2342 2.67993 28.2578 1.71118 30.3983C0.617435 32.8202 1.88306 34.5624 2.72681 34.7968C5.33618 35.5234 8.00806 34.2187 9.45337 32.0702C10.8908 29.9218 10.719 27.1328 10.0549 25.8593L10.0314 25.8124L10.8283 25.3437C11.344 25.039 11.8518 24.7578 12.297 24.5155C12.0471 25.1952 11.8674 25.9999 11.7737 27.1717C11.6643 28.5468 12.2268 30.328 12.969 31.0311C13.2971 31.3357 13.6877 31.3436 13.9299 31.3436C14.7893 31.3436 15.1799 30.6326 15.6096 29.7811C16.1409 28.7421 16.6096 27.5389 16.6096 27.5389C16.6096 27.5389 16.0237 30.7967 17.6252 30.7967C18.2112 30.7967 18.7971 30.0389 19.0627 29.6483V29.6561C19.0627 29.6561 19.0784 29.6327 19.1096 29.578C19.1424 29.5295 19.1737 29.48 19.2034 29.4296V29.414C19.4377 29.0078 19.9612 28.0781 20.7424 26.539C21.7502 24.5546 22.719 22.0703 22.719 22.0703C22.719 22.0703 22.8127 22.6796 23.1018 23.6796C23.2736 24.2735 23.6486 24.9218 23.9377 25.5546C23.7033 25.8828 23.5627 26.0703 23.5627 26.0703L23.5705 26.0781C23.3831 26.3281 23.172 26.5939 22.9534 26.8594C22.1565 27.8125 21.2034 28.8985 21.0784 29.211C20.9299 29.5781 20.9612 29.8516 21.2502 30.0704C21.4612 30.2267 21.8362 30.2578 22.2346 30.2267C22.9534 30.1797 23.4534 30.0001 23.7034 29.8906C24.094 29.75 24.5393 29.5391 24.969 29.2266C25.7502 28.6485 26.2268 27.8282 26.1799 26.7345C26.1565 26.1329 25.9612 25.5392 25.719 24.9767C25.7893 24.8751 25.8597 24.7735 25.9299 24.6642C27.1643 22.8594 28.1174 20.8751 28.1174 20.8751C28.1174 20.8751 28.2112 21.4845 28.5002 22.4845C28.6486 22.9923 28.9456 23.5471 29.2112 24.0939C28.0549 25.0392 27.3284 26.133 27.0784 26.8517C26.6174 28.1799 26.9768 28.7814 27.6565 28.9221C27.9611 28.9846 28.3987 28.8439 28.7267 28.7033C29.133 28.5705 29.6252 28.3438 30.0784 28.008C30.8596 27.4299 31.6096 26.6252 31.5706 25.5392C31.5471 25.0392 31.4143 24.5471 31.2346 24.0783C32.219 23.6721 33.4924 23.4377 35.1096 23.633C38.5862 24.0392 39.2737 26.2111 39.1409 27.1174C39.0081 28.0237 38.2816 28.5236 38.0393 28.6799C37.7971 28.8283 37.719 28.8831 37.7424 28.9924C37.7737 29.1565 37.8831 29.1486 38.094 29.1174C38.3831 29.0705 39.9221 28.3753 39.9846 26.7035C40.0784 24.5547 38.0393 22.211 34.4221 22.2343ZM7.60962 31.2734C6.46118 32.5312 4.844 33.0077 4.1565 32.6015C3.41431 32.1718 3.70329 30.3202 5.11743 28.9843C5.97681 28.1718 7.094 27.4218 7.82837 26.9609C7.99243 26.8593 8.24243 26.711 8.53931 26.5312C8.58618 26.5 8.61743 26.4843 8.61743 26.4843C8.67212 26.4531 8.73462 26.414 8.79712 26.3749C9.32056 28.2812 8.82056 29.9531 7.60962 31.2734ZM16.0081 25.5625C15.6096 26.539 14.7659 29.0468 14.2581 28.9062C13.8205 28.789 13.5549 26.8906 14.172 25.0156C14.4845 24.0702 15.1486 22.9453 15.5392 22.5077C16.1721 21.8046 16.8595 21.5702 17.0315 21.8593C17.2346 22.2343 16.2581 24.9531 16.0081 25.5625ZM22.9377 28.8749C22.7659 28.961 22.6096 29.0234 22.5393 28.9766C22.4846 28.9453 22.6095 28.8281 22.6095 28.8281C22.6095 28.8281 23.4767 27.8985 23.8205 27.4688C24.0158 27.2189 24.2502 26.9298 24.5002 26.6016V26.6953C24.5002 27.8203 23.4221 28.5703 22.9377 28.8749ZM28.2814 27.6562C28.1564 27.5624 28.1721 27.2734 28.5939 26.3671C28.7581 26.0078 29.133 25.4062 29.7814 24.8359C29.8595 25.0703 29.9065 25.2967 29.8986 25.5078C29.8909 26.914 28.8909 27.4374 28.2814 27.6562Z" fill="#CF649A"/>
</g>
<defs>
<clipPath id="clip0">
<rect width="40" height="30" fill="white" transform="translate(0 5)"/>
</clipPath>
</defs>
</svg>
