<svg width="40" height="40" viewBox="0 0 40 40" fill="none" xmlns="http://www.w3.org/2000/svg">
<g clip-path="url(#clip0)">
<g clip-path="url(#clip1)">
<path d="M19.9999 0L37.6766 10V30L19.9999 40L2.32324 30V10L19.9999 0Z" fill="white"/>
<path d="M34.5202 29.31L20.5835 37.1933V31.0533L29.2669 26.2766L34.5202 29.31ZM35.4735 28.4466V11.96L30.3735 14.9033V25.5L35.4735 28.4466ZM5.42355 29.31L19.3602 37.1933V31.0533L10.6769 26.2766L5.42355 29.31ZM4.47021 28.4466V11.96L9.57021 14.9033V25.5L4.47021 28.4466ZM5.06688 10.8933L19.3602 2.80668V8.74333L10.2035 13.78L10.1335 13.82L5.06688 10.8933ZM34.8769 10.8933L20.5835 2.80668V8.74333L29.7402 13.78L29.8102 13.82L34.8769 10.8933Z" fill="#8ED6FB"/>
<path d="M19.3596 29.6567L10.793 24.9467V15.6133L19.3596 20.56V29.6567ZM20.5829 29.6567L29.1496 24.9467V15.6133L20.5829 20.56V29.6567ZM11.373 14.5333L19.9729 9.80334L28.5729 14.5333L19.9729 19.5L11.373 14.5333Z" fill="#1C78C0"/>
</g>
</g>
<defs>
<clipPath id="clip0">
<rect width="40" height="40" fill="white"/>
</clipPath>
<clipPath id="clip1">
<rect width="40" height="40" fill="white"/>
</clipPath>
</defs>
</svg>
